<svg width="128" height="128" viewBox="0 0 128 128" fill="none" xmlns="http://www.w3.org/2000/svg">
  <rect width="128" height="128" rx="24" fill="#0B1220"/>
  <ellipse cx="64" cy="64" rx="44" ry="26" fill="#777BB3"/>
  <path d="M42 72L46 56H54C58 56 60 58 59 62C58 66 54 68 49 68H46L45 72H42ZM47 65H50C52 65 53.5 64 54 62.5C54.4 60.9 53.6 59.8 51.5 59.8H49L47 65Z" fill="#F8FAFC"/>
  <path d="M61 72L65 56H72C76 56 78 58 77 62C76.2 65 73.7 66.8 70.3 67.3L73 72H69.2L66.8 67.6H65.6L64.4 72H61ZM66.4 64.7H68.9C71.1 64.7 72.5 63.8 73 62.2C73.4 60.8 72.7 59.8 70.6 59.8H68.1L66.4 64.7Z" fill="#F8FAFC"/>
  <path d="M78 72L82 56H85.4L82.2 68.9H89.8L89 72H78Z" fill="#F8FAFC"/>
</svg>
